:FULLY-SPECIFIED
:FORCE-ALL-JOINTS-BE-3DOF
:DEGREES
713
root 5.51014 21.3588 7.3878 -171.61 -86.311 -170.528
lfemur -34.5077 -12.9402 9.4391
ltibia 70.4558 -0 0
lfoot 7.50481 -8.76899 0.0326523
ltoes 30.8107 -0 0
rfemur -33.2821 -0.794234 -0.942269
rtibia 90.5667 -0 0
rfoot 20.1393 -19.3227 -0.0876278
rtoes 40.5 -0 0
lowerback 6.14148 -0.92463 -1.82645
upperback -1.26137 -1.46471 -1.55004
thorax -4.74965 -0.703973 -0.449335
lowerneck -6.83811 -6.2177 -2.31321
upperneck -0.232498 -8.25971 4.87632
head 1.4118 -4.06489 1.63913
lclavicle 3.77691e-015 -7.95139e-016 0
lhumerus 1.47497 -20.9026 15.5314
lradius 46.0472 -0 0
lwrist 23.2144 0 0
lhand -21.6477 -3.23044 0.000499957
lfingers 7.12502 -0 0
lthumb 4.74888 26.6961 0.000397198
rclavicle 3.77691e-015 -7.95139e-016 0
rhumerus -12.993 -2.97161 -26.5138
rradius 99.0613 -0 0
rwrist -9.89601 0 0
rhand -27.5918 -35.3479 -0.00555391
rfingers 7.12502 -0 0
rthumb -0.99166 -65.3253 -0.00536672
714
root 5.51632 21.5248 7.5857 -114.811 -88.5347 131.091
lfemur -34.2732 -13.513 9.15372
ltibia 69.0394 0 0
lfoot 6.68345 -8.29926 0
ltoes 30.7132 0 0
rfemur -33.219 -1.14835 -1.23526
rtibia 91.4966 0 0
rfoot 20.8563 -19.1874 0
rtoes 40.821 0 0
lowerback 6.14711 -0.699867 -1.84115
upperback -1.26194 -1.16723 -1.5753
thorax -4.75466 -0.555866 -0.47938
lowerneck -6.80973 -6.29731 -2.34534
upperneck -0.317173 -8.36323 4.91648
head 1.38488 -4.11871 1.65447
lclavicle 3.77691e-015 -7.95139e-016 0
lhumerus -0.00677256 -20.6113 16.0088
lradius 45.2287 0 0
lwrist 22.9737 0 0
lhand -21.8284 -3.2593 0
lfingers 7.12502 0 0
lthumb 4.57444 26.6713 0
rclavicle 3.77691e-015 -7.95139e-016 0
rhumerus -11.6072 -2.62759 -27.0112
rradius 99.2225 0 0
rwrist -9.63092 0 0
rhand -27.5551 -34.9797 0
rfingers 7.12502 0 0
rthumb -0.956194 -784.957 0
715
root 5.47463 21.3796 7.79503 -39.1143 -86.0915 52.958
lfemur -34.0461 -13.968 8.81709
ltibia 67.721 -0 0
lfoot 5.8435 -7.85764 -0.03556
ltoes 30.4958 -0 0
rfemur -33.1254 -1.58741 -1.45145
rtibia 92.4021 -0 0
rfoot 21.4607 -18.9323 0.0632732
rtoes 40.9974 -0 0
lowerback 6.13349 -0.47067 -1.84804
upperback -1.26498 -0.862472 -1.59233
thorax -4.75144 -0.404168 -0.505921
lowerneck -6.78539 -6.37413 -2.36557
upperneck -0.396798 -8.4641 4.94656
head 1.35929 -4.17137 1.66473
lclavicle -3.29983e-014 5.56597e-015 0
lhumerus -1.56804 -20.3882 16.6615
lradius 44.5363 -0 0
lwrist 22.7465 0 0
lhand -22.0159 -3.28699 -0.000781008
lfingers 7.12502 -0 0
lthumb 4.39337 26.6477 -0.000620571
rclavicle -3.29983e-014 5.56597e-015 0
rhumerus -10.163 -2.24197 -27.6122
rradius 99.3677 -0 0
rwrist -9.38079 0 0
rhand -27.51 -34.6105 0.0055943
rfingers 7.12502 -0 0
rthumb -0.912635 -64.5876 0.005405
716
root 5.43293 21.2343 8.00435 -30.8824 -81.6759 40.8635
lfemur -33.8005 -14.3386 8.40638
ltibia 66.4108 -0 0
lfoot 4.93235 -7.42231 -0.0753793
ltoes 30.1525 -0 0
rfemur -33.0172 -2.13615 -1.60693
rtibia 93.3417 -0 0
rfoot 21.999 -18.5397 0.101014
rtoes 41.0598 -0 0
lowerback 6.10035 -0.228278 -1.85037
upperback -1.27076 -0.539032 -1.60106
thorax -4.7401 -0.243099 -0.527723
lowerneck -6.76549 -6.4528 -2.37556
upperneck -0.473478 -8.56853 4.96969
head 1.33479 -4.22601 1.6709
lclavicle -3.29983e-014 5.56597e-015 0
lhumerus -3.24629 -20.2228 17.508
lradius 43.9236 -0 0
lwrist 22.5252 0 0
lhand -22.2137 -3.31041 -0.00134738
lfingers 7.12502 -0 0
lthumb 4.20245 26.6282 -0.0010493
rclavicle -3.29983e-014 5.56597e-015 0
rhumerus -8.61628 -1.80947 -28.3313
rradius 99.4966 -0 0
rwrist -9.14084 0 0
rhand -27.458 -34.2324 0.0111957
rfingers 7.12502 -0 0
rthumb -0.862442 -64.2095 0.010815
717
root 5.39124 21.0891 8.21368 -30.8194 -76.5541 35.5978
lfemur -33.5382 -14.6274 7.9266
ltibia 65.1106 -0 0
lfoot 3.95548 -6.99249 -0.118326
ltoes 29.6921 -0 0
rfemur -32.8949 -2.7871 -1.70487
rtibia 94.3097 -0 0
rfoot 22.4728 -18.0203 0.11366
rtoes 41.0131 -0 0
lowerback 6.04889 0.0261031 -1.84855
upperback -1.279 -0.198589 -1.60211
thorax -4.72107 -0.0734971 -0.54512
lowerneck -6.74975 -6.53306 -2.37593
upperneck -0.547314 -8.67612 4.98633
head 1.31133 -4.28241 1.67323
lclavicle -3.29983e-014 5.56597e-015 0
lhumerus -5.03279 -20.1012 18.5383
lradius 43.3875 -0 0
lwrist 22.3095 0 0
lhand -22.4204 -3.3299 -0.00170536
lfingers 7.12502 -0 0
lthumb 4.00284 26.6125 -0.00129056
rclavicle -3.29983e-014 5.56597e-015 0
rhumerus -6.97878 -1.32452 -29.1585
rradius 99.6093 -0 0
rwrist -8.91037 0 0
rhand -27.3995 -33.8465 0.0167211
rfingers 7.12502 -0 0
rthumb -0.805954 -63.8234 0.0161501
718
root 5.34955 20.9438 8.423 -33.1304 -70.883 31.4305
lfemur -33.2614 -14.8372 7.38293
ltibia 63.8222 -0 0
lfoot 2.91837 -6.56737 -0.163348
ltoes 29.1234 -0 0
rfemur -32.7595 -3.53279 -1.74845
rtibia 95.3005 -0 0
rfoot 22.8833 -17.3849 0.102242
rtoes 40.8626 -0 0
lowerback 5.98031 0.291267 -1.843
upperback -1.28947 0.157184 -1.59613
thorax -4.69477 0.103797 -0.558449
lowerneck -6.73787 -6.61465 -2.36726
upperneck -0.618407 -8.78644 4.99692
head 1.28886 -4.34033 1.67199
lclavicle -3.29983e-014 5.56597e-015 0
lhumerus -6.91899 -20.0096 19.7424
lradius 42.9253 -0 0
lwrist 22.099 0 0
lhand -22.6349 -3.34582 -0.00186091
lfingers 7.12502 -0 0
lthumb 3.7957 26.6002 -0.00134872
rclavicle -3.29983e-014 5.56597e-015 0
rhumerus -5.26226 -0.781788 -30.0831
rradius 99.7059 -0 0
rwrist -8.68863 0 0
rhand -27.3349 -33.4534 0.0220912
rfingers 7.12502 -0 0
rthumb -0.743509 -63.4303 0.0213338
719
root 5.30785 20.7986 8.63233 -36.649 -64.7774 27.2365
lfemur -32.9723 -14.9706 6.78067
ltibia 62.5475 -0 0
lfoot 1.82653 -6.14621 -0.209464
ltoes 28.4553 -0 0
rfemur -32.6122 -4.36578 -1.74086
rtibia 96.3085 -0 0
rfoot 23.2317 -16.6441 0.0683153
rtoes 40.6133 -0 0
lowerback 5.89579 0.566012 -1.83412
upperback -1.3019 0.526609 -1.58377
thorax -4.66164 0.28794 -0.568045
lowerneck -6.72958 -6.6973 -2.35016
upperneck -0.68686 -8.89909 5.00191
head 1.26733 -4.39954 1.66744
lclavicle -3.29983e-014 5.56597e-015 0
lhumerus -8.89625 -19.9341 21.1097
lradius 42.5338 -0 0
lwrist 21.8936 0 0
lhand -22.856 -3.35852 -0.00182039
lfingers 7.12502 -0 0
lthumb 3.58218 26.5909 -0.00122868
rclavicle -3.29983e-014 5.56597e-015 0
rhumerus -3.4786 -0.176402 -31.0947
rradius 99.7865 -0 0
rwrist -8.4749 0 0
rhand -27.2644 -33.0542 0.0272309
rfingers 7.12502 -0 0
rthumb -0.675449 -63.031 0.0262939
720
root 5.26616 20.6533 8.84165 -41.0062 -58.3617 22.6647
lfemur -32.6735 -15.0304 6.12518
ltibia 61.2883 -0 0
lfoot 0.685483 -5.72825 -0.255758
ltoes 27.6965 -0 0
rfemur -32.4542 -5.27867 -1.68525
rtibia 97.3279 -0 0
rfoot 23.5193 -15.8085 0.0138822
rtoes 40.2704 -0 0
lowerback 5.79652 0.849138 -1.82233
upperback -1.31604 0.908012 -1.56566
thorax -4.62211 0.478089 -0.574244
lowerneck -6.72459 -6.78076 -2.32523
upperneck -0.752775 -9.01363 5.00174
head 1.2467 -4.45981 1.65985
lclavicle -3.29983e-014 5.56597e-015 0
lhumerus -10.9556 -19.8613 22.629
lradius 42.2102 -0 0
lwrist 21.6927 0 0
lhand -23.0826 -3.36834 -0.00159109
lfingers 7.12502 -0 0
lthumb 3.36343 26.5844 -0.000936494
rclavicle -3.29983e-014 5.56597e-015 0
rhumerus -1.63979 0.495916 -32.1825
rradius 99.8512 -0 0
rwrist -8.26845 0 0
rhand -27.1885 -32.6496 0.0320704
rfingers 7.12502 -0 0
rthumb -0.602114 -62.6264 0.030963
721
root 5.22447 20.5081 9.05098 -46.0607 -51.7793 17.5691
lfemur -32.3679 -15.0194 5.42192
ltibia 60.0465 -0 0
lfoot -0.499261 -5.31281 -0.30138
ltoes 26.8559 -0 0
rfemur -32.2869 -6.26406 -1.58471
rtibia 98.3531 -0 0
rfoot 23.7471 -14.8884 -0.0586721
rtoes 39.8388 -0 0
lowerback 5.68369 1.13945 -1.80801
upperback -1.33166 1.29972 -1.54244
thorax -4.5766 0.673399 -0.577385
lowerneck -6.7226 -6.86475 -2.29309
upperneck -0.816256 -9.12965 4.99686
head 1.2269 -4.52091 1.64948
lclavicle -3.29983e-014 5.56597e-015 0
lhumerus -13.0875 -19.7782 24.2886
lradius 41.9515 -0 0
lwrist 21.4961 0 0
lhand -23.3133 -3.37565 -0.00118175
lfingers 7.12502 -0 0
lthumb 3.14061 26.5801 -0.000479769
rclavicle -3.29983e-014 5.56597e-015 0
rhumerus 0.242198 1.23871 -33.3358
rradius 99.9 -0 0
rwrist -8.06854 0 0
rhand -27.1075 -32.2405 0.0365451
rfingers 7.12502 -0 0
rthumb -0.523846 -62.2173 0.0352791
